<svg id="Layer_1" data-name="Layer 1" xmlns="http://www.w3.org/2000/svg" viewBox="0 0 1922 1080">
  <defs>
    <style>
      .cls-1 {
        fill: #625292;
      }

      .cls-2, .cls-7 {
        fill: #544389;
      }

      .cls-11, .cls-12, .cls-14, .cls-3 {
        fill: none;
      }

      .cls-3 {
        stroke: #544389;
      }

      .cls-11, .cls-12, .cls-14, .cls-3, .cls-4, .cls-7 {
        stroke-miterlimit: 10;
      }

      .cls-4, .cls-8 {
        fill: #bbb4d3;
      }

      .cls-14, .cls-4, .cls-7 {
        stroke: #000;
      }

      .cls-5 {
        fill: #5e527c;
      }

      .cls-6 {
        fill: #0b9444;
      }

      .cls-9 {
        fill: #1d1d1e;
      }

      .cls-10 {
        fill: #a6a3b8;
      }

      .cls-11 {
        stroke: #bbb4d3;
      }

      .cls-12 {
        stroke: #a6a3b8;
      }

      .cls-13 {
        fill: #fff;
      }

      .cls-15 {
        fill: #adafb2;
      }

      .cls-16 {
        fill: #a09db0;
      }

      .cls-17 {
        fill: #333136;
      }

      .cls-18 {
        fill: #7d6ea4;
      }
    </style>
  </defs>
  <g>
    <path d="M924.34,170.62H931l9.38,14v-14h6.68v20h-6.68l-9.4-14v14h-6.68Z"/>
    <path d="M950.82,170.62h6.52v4.08h-6.52Zm0,6.72h6.5v13.32h-6.5Z"/>
    <path d="M972.73,176.72c2.48,0,7.23,1.5,7.19,6.68v7.26h-6.46V181.9a2.81,2.81,0,0,0-3-2.46,2.94,2.94,0,0,0-3.1,2.46c0,.56,0,8.76,0,8.76h-6.46l0-13.34h6.48v1.4A8,8,0,0,1,972.73,176.72Z"/>
    <path d="M985.56,177.36H982v-2h3.52v-2.7h6.52v2.7h3.5v2h-3.5v13.3h-6.52Z"/>
    <path d="M1016.52,186c-1.14,3.14-4.84,5.46-9.24,5.46-5.3,0-9.58-3.34-9.58-7.48s4.28-7.48,9.58-7.48,9.6,3.42,9.6,7.56h-12.26v2.74a2.72,2.72,0,1,0,5.42,0,6,6,0,0,0,0-.8Zm-9.18-7.86a2.68,2.68,0,0,0-2.72,3V182h5.44c0-.15,0-.12,0-.86A2.66,2.66,0,0,0,1007.34,178.14Z"/>
    <path d="M1030.65,176.72c2.48,0,7.23,1.5,7.19,6.68v7.26h-6.46V181.9a2.81,2.81,0,0,0-3-2.46,2.94,2.94,0,0,0-3.1,2.46c0,.56,0,8.76,0,8.76h-6.46l0-13.34h6.48v1.4A8,8,0,0,1,1030.65,176.72Z"/>
    <path d="M1051.92,178v-7.38h6.46v20h-6.46v-.78a8.5,8.5,0,0,1-4.28,1.15,8.16,8.16,0,0,1-3.22-.65,7.17,7.17,0,0,1-4.46-6.6c0-3.36,3.26-7,7.64-7A8.79,8.79,0,0,1,1051.92,178Zm0,3.54a2.55,2.55,0,1,0-5.1,0v4.76a2.56,2.56,0,1,0,5.12,0Z"/>
    <path d="M1079.54,183.9c0,4.14-4.26,7.48-9.52,7.48s-9.52-3.34-9.52-7.48,4.26-7.48,9.52-7.48S1079.54,179.76,1079.54,183.9Zm-9.56,5.82a2.67,2.67,0,0,0,2.66-3v-5.66a2.68,2.68,0,1,0-5.32,0l0,5.66A2.68,2.68,0,0,0,1070,189.72Z"/>
  </g>
  <g>
    <g>
      <path class="cls-1" d="M382.51,242.48l-9.77,1.58-.82.08c-16.78,1.94-25.44,18.77-28.82,33.46-4.26,18.46-6.31,37.65-9.08,56.39q-8.58,58.2-15.16,116.67T308.11,567.8c-2.79,39.14-4.48,78.34-6.6,117.52-1,18.38-1.81,35.68,3.62,53.53,5,16.4,13.23,32.93,24.47,45.95,24,27.85,60.17,39.89,94.67,48.83,17.76,4.6,35.59,8.86,53.14,14.26,17.11,5.28,34,11.25,50.77,17.52,33.57,12.53,66.71,26.21,100.61,37.81,34.39,11.76,69.45,20.9,105.6,25.13,39,4.56,78.29,6.9,117.4,10.11l28.37,2.34v.05a52,52,0,0,1,6,.57v.06C910.28,944,935.13,944,959,944c33-1,66-1,99-2,34-2,68-4,103-6l24-3c26-1,51-6,76.41-8.07l.17.12c27.21-3.91,54.53-8.12,81.38-14,26.57-5.82,50.32-17.57,75.21-28.07s50.57-19.68,76.41-27.88c25.38-8.05,51.1-14.7,76.87-21.32,24-6.17,48.11-12.91,70.41-23.95,2.64-1.32,5.25-2.68,7.83-4.11l0-.06a86.87,86.87,0,0,0,8.46-6.19l.38-.47c17.5-18,37.5-38,38.74-65.07l.25-.58c2.75-31.16,1.65-62.47.48-93.68-.33-8.8-.57-17.6-1-26.4l-.15-.82a21,21,0,0,0,0-5.25,12.81,12.81,0,0,1-.14-1.64c0-.42.08-.84.11-1.27a11.73,11.73,0,0,0-.12-2.71c-.07-.51-.16-1-.18-1.54a19.31,19.31,0,0,1,.09-2,14.1,14.1,0,0,0-.1-2.34s0,0,0-.06c-.47-1.65.51-2.65.51-4.63-2-21-3-41-5-62,0-5,1-11,0-16-2-9-2-17-4-25-10-76-15-147-32-223-1-2-1-5-3-7-13-16-34-19-52.9-21.12v-.07c-7.78-.88-15.38-2.92-23.07-4.39l0,.09c-15-2.51-30-3.51-46-7.51-20-6-38-10-57-18l-12-6c-2-1-3,0-5-1-29-14-56-29-86-42-2-1-3,0-5-1-10-5-20-9-30-9-225-2-449-1-673.87-1.22l-.17,0q-5.81-.18-11.6,0l-1,.13c-19.61,4.09-36.87,14.74-54.12,24.41a601.42,601.42,0,0,1-101.19,45,599.31,599.31,0,0,1-111.5,26.2Zm-33.71-4.39c17.22-13,41.26-9.6,62.56-13.16,8.48-1.42,16.71-4,24.92-6.61l30.85-9.74c22.12-7,44.27-14,65.58-23.13,40.11-17.23,77.38-42.16,119.95-51.84h662.16c6.56,0,13.25.36,19.8,0,1.25-.08,2.5-.41,3.76-.41a17.29,17.29,0,0,1,5,1.18c4.06,1.26,8.15,2.44,12.25,3.58,8.19,2.28,16.42,4.43,24.57,6.87,6.58,2,13.12,4.13,19.5,6.7,13.25,5.34,25.74,12.38,38.35,19.08,10.84,5.76,21.8,11.28,32.94,16.41a518.52,518.52,0,0,0,167.77,45.09l.07.1a41,41,0,0,1,24.92,19.17c4.72,8.3,6.35,18,7.88,27.37,21,129.78,36.43,260.7,38.8,392.14h.08q.23,17.34-.07,34.69c-.38,22.74-1.61,46.23-11.65,66.63-5.9,12-14.6,22.38-23.21,32.62l.21.22c-23.84,22.9-57.2,32.32-89.11,41l-81.86,22.13c-20.44,5.53-40.92,11.06-60.81,18.33-22,8-43.16,18.12-65.21,25.93-51.66,18.27-106.86,23.53-161.41,28.65l-1.77.38a2333.32,2333.32,0,0,1-331.75,10.14v-.07c-20.44,1.52-40.64-3.12-60.91-4.93-21.27-1.91-42.58-3.22-63.84-5.24C718,937.38,676.93,931,637.33,919c-21-6.34-42.2-13-61.46-23.59l-.28-.23a11.29,11.29,0,0,1-1.92-.84c-.24-.14-.48-.28-.73-.41s-.75-.33-1.13-.49c-1.53-.65-2.94-1.57-4.44-2.31l-.73-.36c-11.57-5.26-23.68-8.45-36-11.28-22.89-5.24-45.05-13.14-67.75-19.09q-34.9-9.17-70.11-17.19l-.24-.07c-1.65-.55-3.3-1.09-5-1.52a14.13,14.13,0,0,1-4.25-1.49l-.53-.17c-15.43-5.38-29.63-13.75-42.72-23.46-12.35-9.17-23.87-19.73-32.12-32.83-16.7-26.51-19.64-58.79-19.7-89.39,0-20.39.71-40.77,1.17-61.16l.07-.5a4.81,4.81,0,0,0,0-1.14,5,5,0,0,1,.21-.76,4.82,4.82,0,0,0,.14-1.06c0-.57.07-1.13.11-1.69l0,0C294,507,307,390,329,267c3-12,8-25,19.66-29.09Z"/>
      <path class="cls-2" d="M880.16,940.8l-28.37-2.34c-39.11-3.21-78.42-5.55-117.4-10.11-36.15-4.23-71.21-13.37-105.6-25.13-33.9-11.6-67-25.28-100.61-37.81-16.77-6.27-33.66-12.24-50.77-17.52-17.55-5.4-35.38-9.66-53.14-14.26-34.5-8.94-70.63-21-94.67-48.83-11.24-13-19.49-29.55-24.47-45.95-5.43-17.85-4.62-35.15-3.62-53.53,2.12-39.18,3.81-78.38,6.6-117.52s6.4-78.17,10.75-117.14S328.3,372.79,334,334c2.77-18.74,4.82-37.93,9.08-56.39,3.38-14.69,12-31.52,28.82-33.46l.82-.08,9.77-1.58v.08A599.31,599.31,0,0,0,494,216.36a601.42,601.42,0,0,0,101.19-45c17.25-9.67,34.51-20.32,54.12-24.41l1-.13q5.79-.21,11.6,0l.17,0C887,147,1111,146,1336,148c10,0,20,4,30,9,2,1,3,0,5,1,30,13,57,28,86,42,2,1,3,0,5,1l12,6c19,8,37,12,57,18,16,4,31,5,46,7.51l0-.09c7.69,1.47,15.29,3.51,23.07,4.39v.07C1619,239,1640,242,1653,258c2,2,2,5,3,7,17,76,22,147,32,223,2,8,2,16,4,25,1,5,0,11,0,16,2,21,3,41,5,62,0,2-1,3-.51,4.63,0,0,0,0,0,.06a14.1,14.1,0,0,1,.1,2.34,19.31,19.31,0,0,0-.09,2c0,.51.11,1,.18,1.54a11.73,11.73,0,0,1,.12,2.71c0,.43-.1.85-.11,1.27a12.81,12.81,0,0,0,.14,1.64,21,21,0,0,1,0,5.25l.15.82c.43,8.8.67,17.6,1,26.4,1.17,31.21,2.27,62.52-.48,93.68l-.25.58C1696,761,1676,781,1658.5,799l-.38.47a86.87,86.87,0,0,1-8.46,6.19l0,.06c-2.58,1.43-5.19,2.79-7.83,4.11-22.3,11-46.39,17.78-70.41,23.95-25.77,6.62-51.49,13.27-76.87,21.32-25.84,8.2-51.43,17.34-76.41,27.88s-48.64,22.25-75.21,28.07c-26.85,5.88-54.17,10.09-81.38,14l-.17-.12C1236,927,1211,932,1185,933l-24,3c-35,2-69,4-103,6-33,1-66,1-99,2-23.87,0-48.72,0-72.88-2.52v-.06a52,52,0,0,0-6-.57Z"/>
    </g>
    <path class="cls-3" d="M1577,232.51c-15-2.51-30-3.51-46-7.51-20-6-38-10-57-18l-12-6c-2-1-3,0-5-1-29-14-56-29-86-42-2-1-3,0-5-1-10-5-20-9-30-9-225-2-449-1-673.87-1.22"/>
  </g>
  <rect x="428.61" y="376.09" width="71" height="196" rx="11.12"/>
  <rect x="365.61" y="438.09" width="196" height="71" rx="11.12"/>
  <circle class="cls-4" cx="1465.09" cy="494.25" r="46"/>
  <circle class="cls-4" cx="1596.09" cy="448.25" r="46"/>
  <circle class="cls-5" cx="1464.35" cy="274.17" r="20"/>
  <circle class="cls-6" cx="1464.35" cy="274.17" r="15"/>
  <rect class="cls-7" x="424.1" y="627.52" width="162.88" height="65.26" rx="32.63" transform="translate(161.21 -96.69) rotate(12.98)"/>
  <circle class="cls-8" cx="562.09" cy="673.25" r="22"/>
  <rect class="cls-7" x="422.1" y="711.52" width="162.88" height="65.26" rx="32.63" transform="matrix(0.97, 0.22, -0.22, 0.97, 180.03, -94.09)"/>
  <circle class="cls-8" cx="560.09" cy="757.25" r="22"/>
  <rect class="cls-9" x="1414.81" y="634.76" width="164.3" height="10" rx="5" transform="translate(-111.92 391.39) rotate(-14.36)"/>
  <rect class="cls-9" x="1414.6" y="665.3" width="164.3" height="10" rx="5" transform="translate(-119.5 392.3) rotate(-14.36)"/>
  <rect class="cls-9" x="1414.6" y="695.3" width="164.3" height="10" rx="5" transform="translate(-126.95 393.23) rotate(-14.36)"/>
  <rect class="cls-9" x="1414.6" y="725.3" width="164.3" height="10" rx="5" transform="translate(-134.39 394.17) rotate(-14.36)"/>
  <rect class="cls-9" x="1414.6" y="755.3" width="164.3" height="10" rx="5" transform="translate(-141.83 395.11) rotate(-14.36)"/>
  <g>
    <g>
      <circle class="cls-10" cx="464.09" cy="473.25" r="20.5"/>
      <path class="cls-8" d="M552.09,455.74v35a8.48,8.48,0,0,1-8.48,8.48H490.09v-.5h-.54l.39-51h.15v-.52h53.52A8.49,8.49,0,0,1,552.09,455.74Z"/>
      <path class="cls-8" d="M490.09,499.25v55.51a8.49,8.49,0,0,1-8.49,8.49h-35a8.49,8.49,0,0,1-8.49-8.49V499.25h.49v-.5h51v.5Z"/>
      <path class="cls-8" d="M490.09,498.75v.5h-.54v-.5Z"/>
      <path class="cls-8" d="M490.09,447.25v.52h-.15v-.52Z"/>
      <path class="cls-8" d="M490.09,394.74v52.51h-.15v.52l-51.32,0v-.47h-.53V394.74a8.49,8.49,0,0,1,8.49-8.49h35A8.49,8.49,0,0,1,490.09,394.74Z"/>
      <path class="cls-8" d="M489.94,447.77l-.39,51h-51l0-51Zm-5.35,25.48a20.5,20.5,0,1,0-20.5,20.5A20.5,20.5,0,0,0,484.59,473.25Z"/>
      <path class="cls-8" d="M438.62,447.25v.47h-.53v-.47Z"/>
      <path class="cls-8" d="M438.62,447.72l0,51h-.49v.5H383.58a8.49,8.49,0,0,1-8.49-8.48v-35a8.49,8.49,0,0,1,8.49-8.49h54.51v.47Z"/>
      <path class="cls-8" d="M438.58,498.75v.5h-.49v-.5Z"/>
    </g>
    <g>
      <path class="cls-11" d="M438.62,447.72v-.47h-55a8.49,8.49,0,0,0-8.49,8.49v35a8.49,8.49,0,0,0,8.49,8.48h55v-.5Z"/>
      <path class="cls-11" d="M489.55,498.75v.5h54.06a8.48,8.48,0,0,0,8.48-8.48v-35a8.49,8.49,0,0,0-8.48-8.49H489.94v.52Z"/>
      <path class="cls-11" d="M438.58,498.75h-.49v56a8.49,8.49,0,0,0,8.49,8.49h35a8.49,8.49,0,0,0,8.49-8.49v-56H438.58Z"/>
      <path class="cls-11" d="M489.94,447.77h.15v-53a8.49,8.49,0,0,0-8.49-8.49h-35a8.49,8.49,0,0,0-8.49,8.49v53h.53Z"/>
      <circle class="cls-12" cx="464.09" cy="473.25" r="20.5"/>
    </g>
  </g>
  <polygon class="cls-10" points="464.2 398.55 479.59 426.75 448.81 426.75 464.2 398.55"/>
  <polygon class="cls-10" points="388.39 473.35 416.59 457.96 416.59 488.74 388.39 473.35"/>
  <polygon class="cls-10" points="464.87 549.96 449.48 521.75 480.26 521.75 464.87 549.96"/>
  <polygon class="cls-10" points="539.8 473.74 511.59 489.13 511.59 458.35 539.8 473.74"/>
  <g>
    <g>
      <path d="M1075.46,854.19q-20.1,1.41-40.26,1.8l-.29,0c-120.32,2.81-244.32,2.81-359.47-33.82l0,0q-5.44-2-10.84-4l-.27-.2a84.51,84.51,0,0,1-41-55c-2.57-11.68-2.6-23.75-2.58-35.72q.46-216.87,19.62-433.16c1.44-16.29,5.42-35.91,20.88-41.27l.31-.08a45.64,45.64,0,0,1,12.31-3.68l.26.06c90.46-12.22,181.46-18.22,272.46-20.22,116.94-2,233.88,3,350,17.09v0c3,.48,6.05,1.09,9,1.82a11.85,11.85,0,0,1,3.33,1.2h.1c17.54,6.87,31.54,22.87,33.54,41.87,9,91,15,181,17.4,272.39v0q0,6.71.39,13.39h0c.21,62.18,7.21,124.18,1.21,186.18-2,23-20,41-40,50-36,18-74,23-113,30l-48,6c-29,2-57,5-85.13,5.5Zm235.63-135.94v-435h-638v435Z"/>
      <rect class="cls-13" x="673.09" y="283.25" width="638" height="435"/>
    </g>
    <g>
      <rect class="cls-14" x="673.09" y="283.25" width="638" height="435"/>
      <path class="cls-14" d="M664.35,817.84a84.51,84.51,0,0,1-41-55c-2.57-11.68-2.6-23.75-2.58-35.72q.46-216.87,19.62-433.16c1.44-16.29,5.42-35.91,20.88-41.27"/>
      <path class="cls-14" d="M674.13,249c90.46-12.22,181.46-18.22,272.46-20.22,116.94-2,233.88,3,350,17.09l.18,0"/>
      <path class="cls-14" d="M661.56,252.59a45.64,45.64,0,0,1,12.31-3.68"/>
      <path class="cls-14" d="M1309.05,248.88c17.54,6.87,31.54,22.87,33.54,41.87,9,91,15,181,17.4,272.39"/>
      <path class="cls-14" d="M1296.58,245.87c3,.48,6.05,1.09,9,1.82a11.85,11.85,0,0,1,3.33,1.2"/>
      <path class="cls-14" d="M1360.38,576.57c.21,62.18,7.21,124.18,1.21,186.18-2,23-20,41-40,50-36,18-74,23-113,30l-48,6c-29,2-57,5-85.13,5.5"/>
      <path class="cls-14" d="M1360,563.18q0,6.71.39,13.39v.06"/>
      <path class="cls-14" d="M675.44,822.12c115.15,36.63,239.15,36.63,359.47,33.82"/>
      <path class="cls-14" d="M664.62,818q5.39,2.07,10.84,4"/>
      <path class="cls-14" d="M1035.2,856q20.15-.39,40.26-1.8l.89-.06"/>
    </g>
  </g>
  <rect class="cls-7" x="902.09" y="161.25" width="189" height="45" rx="22.5"/>
  <g>
    <path class="cls-15" d="M1027.13,800l-9.48-16.85-6.7,12h6.7V800h-17.11l2.08-3.42,11.84-19.81h6.35L1034,800Z"/>
    <path class="cls-15" d="M1050.44,800h-19.72V776.75h19.72a9,9,0,0,1,9,5.78,16.36,16.36,0,0,1,1.28,5.75,16.84,16.84,0,0,1-1.28,5.84A9,9,0,0,1,1050.44,800Zm4.73-11.64a10.87,10.87,0,0,0-.75-3.4,5.34,5.34,0,0,0-5.28-3.4h-12.67v13.69h12.64a5.41,5.41,0,0,0,5.31-3.43A11.34,11.34,0,0,0,1055.17,788.34Z"/>
    <path class="cls-15" d="M1055.49,776.75l6.32,0,9.28,15.23,10.09-15.23,6.76,0L1073.35,800h-4.55Z"/>
    <path class="cls-15" d="M1103.89,800l-9.48-16.85-6.7,12h6.7V800H1077.3l2.09-3.42,11.83-19.81h6.35L1110.76,800Z"/>
    <path class="cls-15" d="M1113.29,784.64l0,15.34h-5.77v-23.2h5.77l18.21,14.91V776.78h5.89V800h-5.89Z"/>
    <path class="cls-15" d="M1161.11,781.71h-15.78v13.43h15.78v-4.9h5.71v6.35c.17,1.41-.53,2.4-2.11,3a8.06,8.06,0,0,1-2.43.43q-3.71,0-19.25,0-3.12,0-3.35-3.37,0-4.23,0-17.1,0-2.55,4.4-2.76h18.27q4.15,0,4.47,2.76v6.41h-5.71Z"/>
    <path class="cls-15" d="M1169.89,800v-23.2h24.65v4.76H1175.9v4.14h10.93v5.05h-10.9v4.15h18.56V800Z"/>
  </g>
  <g>
    <path class="cls-15" d="M825.82,787.77c-.28,11.83-6.88,18.7-17.34,18.7s-16.92-6.19-16.92-15.59A19.3,19.3,0,0,1,797,777.27a18.56,18.56,0,0,1,13.39-5.19,15.92,15.92,0,0,1,14.31,7.66l-7,4.77a7.89,7.89,0,0,0-7.34-4.4c-5.5,0-9.49,4.45-9.49,10.5,0,5.09,3.16,8.3,7.75,8.3a8.72,8.72,0,0,0,4.58-1.19,6.06,6.06,0,0,0,2.52-3.26H808.3l1.06-6.69Z"/>
    <path class="cls-15" d="M834.57,772.82h11l7,32.78h-8.9l-1.32-6.19H830.81l-3.12,6.19h-9.53Zm6.47,19.3-1.52-7.66a24.56,24.56,0,0,1-.45-3.71c-.74,2.06-1.24,3.35-1.47,3.85l-3.49,7.52Z"/>
    <path class="cls-15" d="M860.11,772.82h9.72l2.2,12.7c.28,1.6.51,3.35.69,5.13a31,31,0,0,1,1.83-4.95l5.87-12.88h9.68l.78,32.78h-8.07L882.72,790c0-1.52,0-3.26.18-5.18a33.17,33.17,0,0,1-2,4.86l-7.47,16h-5.32L865,789.69c-.28-1.42-.55-3.07-.78-4.9-.32,1.92-.69,3.66-1.1,5.18L858.6,805.6h-8.53Z"/>
    <path class="cls-15" d="M910.13,798.31,909,805.6H890.1l5.18-32.78h18.89L913,780.38H902.84l-.82,5.37h9.4l-1.1,7.11h-9.45l-.87,5.45Z"/>
    <path class="cls-15" d="M940.81,796a9.28,9.28,0,0,1-4.17,8c-2.48,1.56-6,1.65-10.78,1.65H915l5.23-32.78h7.42c4,0,7,0,9.18.92a7.18,7.18,0,0,1,4.44,6.87,7.55,7.55,0,0,1-6.92,7.93C938.56,789.33,940.81,791.94,940.81,796Zm-15.18,3.21c4.36,0,6.6-.5,6.6-4.35,0-2.52-1.56-3.3-4.9-3.3h-1.56l-1.19,7.65Zm1.84-13.66c3.62,0,5.54-.64,5.54-3.67,0-2-1.33-2.75-4.08-2.75h-1.24l-1,6.42Z"/>
    <path class="cls-15" d="M946.58,802.62a15.22,15.22,0,0,1-5-11.51,18.47,18.47,0,0,1,19.07-19c10,0,16.51,6.33,16.51,15.32a18.92,18.92,0,0,1-4.54,12.65,18.49,18.49,0,0,1-14.54,6.42C953.37,806.47,949.56,805.19,946.58,802.62Zm4.09-12.47c0,5,3.11,8.3,7.93,8.3,5.27,0,9.44-4.54,9.44-10.27a7.72,7.72,0,0,0-7.93-8.07C954.7,780.11,950.67,784.51,950.67,790.15Z"/>
    <path class="cls-15" d="M982.81,791l-9.22-18.16h9.77l3.57,8.39a30.76,30.76,0,0,1,1.19,3.21,24.58,24.58,0,0,1,1.56-3.3l5.83-8.3h10.08l-14,18.25-2.29,14.53h-8.81Z"/>
  </g>
  <path class="cls-16" d="M1454.17,473.06h11.5c6.26,0,10.71,3.71,10.71,9.54,0,4.82-2,7.84-5.57,8.85v.1c4.24.37,7.32,4.14,7.32,9.28,0,6.67-4.72,10.59-11.29,10.59h-12.67Zm4.14,16.8h6.52c4.45,0,7.1-2.28,7.1-6.52s-2.34-6.79-7-6.79h-6.62Zm0,18.07h7.84c3.92,0,7.53-1.7,7.53-7.21,0-4.45-2.5-7.37-8.54-7.37h-6.83Z"/>
  <path class="cls-16" d="M1586.45,465.42h-3.71l10.49-38.36h5.51l10.71,38.36h-4l-3.23-11.76h-12.61Zm14.73-15.26L1596,430.55h-.11l-5.19,19.61Z"/>
  <g>
    <path class="cls-17" d="M917.93,171.37h6.7l9.39,14v-14h6.68v20H934l-9.41-14v14h-6.68Z"/>
    <path class="cls-17" d="M944.41,171.37h6.52v4.08h-6.52Zm0,6.72h6.5v13.32h-6.5Z"/>
    <path class="cls-17" d="M966.32,177.47c2.49,0,7.24,1.5,7.2,6.68v7.26h-6.47v-8.76a2.81,2.81,0,0,0-3-2.46,2.94,2.94,0,0,0-3.1,2.46c0,.56,0,8.76,0,8.76h-6.46l0-13.34H961v1.4A8.05,8.05,0,0,1,966.32,177.47Z"/>
    <path class="cls-17" d="M979.15,178.11h-3.52v-2h3.52v-2.7h6.52v2.7h3.5v2h-3.5v13.3h-6.52Z"/>
    <path class="cls-17" d="M1010.12,186.75c-1.14,3.14-4.84,5.46-9.25,5.46-5.3,0-9.58-3.34-9.58-7.48s4.28-7.48,9.58-7.48,9.61,3.42,9.61,7.56H998.21v2.74a2.72,2.72,0,1,0,5.42,0,6,6,0,0,0,0-.8Zm-9.19-7.86a2.68,2.68,0,0,0-2.72,3v.86h5.44c0-.14,0-.12,0-.86A2.66,2.66,0,0,0,1000.93,178.89Z"/>
    <path class="cls-17" d="M1024.24,177.47c2.49,0,7.24,1.5,7.2,6.68v7.26H1025v-8.76a2.81,2.81,0,0,0-3-2.46,2.94,2.94,0,0,0-3.1,2.46c0,.56,0,8.76,0,8.76h-6.46l0-13.34h6.48v1.4A8.05,8.05,0,0,1,1024.24,177.47Z"/>
    <path class="cls-17" d="M1045.51,178.75v-7.38H1052v20h-6.47v-.78a8.52,8.52,0,0,1-4.28,1.16,8.2,8.2,0,0,1-3.22-.66,7.17,7.17,0,0,1-4.46-6.6c0-3.36,3.26-7,7.64-7A8.76,8.76,0,0,1,1045.51,178.75Zm0,3.54a2.55,2.55,0,1,0-5.1,0v4.76a2.56,2.56,0,1,0,5.12,0Z"/>
    <path class="cls-17" d="M1073.14,184.65c0,4.14-4.26,7.48-9.53,7.48s-9.52-3.34-9.52-7.48,4.26-7.48,9.52-7.48S1073.14,180.51,1073.14,184.65Zm-9.57,5.82a2.67,2.67,0,0,0,2.66-3v-5.66a2.68,2.68,0,1,0-5.32,0l0,5.66A2.68,2.68,0,0,0,1063.57,190.47Z"/>
  </g>
  <g>
    <path class="cls-9" d="M452.34,650.59c-.69,3-.08,4.72,3.14,5.46,2.43.56,4.12-.2,4.73-2.84,1.24-5.35-9.17-5-7.59-11.81.81-3.52,3.63-4.77,7-4s5.17,3.52,4.3,7.26l-2.13-.49c.63-2.73-.29-4.44-2.86-5a3.21,3.21,0,0,0-4.18,2.54c-1.22,5.29,9.29,4.44,7.57,11.92-.9,3.92-4.13,5-7.51,4.18-4.18-1-5.55-3.72-4.64-7.7Z"/>
    <path class="cls-9" d="M466.65,639.38,478.22,642l-.45,2-4.72-1.09L469,660.71l-2.13-.49,4.1-17.79-4.72-1.09Z"/>
    <path class="cls-9" d="M475.79,662.29l-1.91-.44,10-18.51,2.84.65.95,21-2-.48-.27-6.44-6.49-1.49Zm9.4-6.11-.35-10.71,0,0-5,9.48Z"/>
    <path class="cls-9" d="M494.1,645.7l6,1.38c4.37,1,5.59,4,4.83,7.38-.72,3.11-2.88,5.37-6.39,4.62l3.69,9.3-2.59-.6-4-11.16,0-.11,2.21.51c2.54.58,4.22-.58,4.79-3.06.65-2.81-.38-4.49-3.24-5.15l-3.55-.82-4.14,18-2.13-.49Z"/>
    <path class="cls-9" d="M507.58,648.81l11.56,2.67-.45,2L514,652.35l-4.1,17.79-2.13-.49,4.1-17.79-4.72-1.09Z"/>
  </g>
  <g>
    <path class="cls-9" d="M451,739.82l4.56-19.75,3.11.72,1.24,17.41H460L468.23,723l3.11.72-4.55,19.75-2.13-.49,3.74-16.21h-.06l-8.42,15.12-1.72-.39-1.26-17.36h-.05l-3.74,16.2Z"/>
    <path class="cls-9" d="M470.72,744.36l4.55-19.75,9.94,2.29-.42,1.8-7.8-1.8-1.54,6.66,7.81,1.8-.42,1.8-7.8-1.8-1.78,7.69,7.81,1.8-.42,1.8Z"/>
    <path class="cls-9" d="M484.36,747.51l4.56-19.75,2.29.52L496,745.17h.06l3.45-15,2.13.49-4.56,19.76-2-.47-4.91-17.68-.06,0L486.49,748Z"/>
    <path class="cls-9" d="M507.36,732l-3.27,14.19c-.66,2.83.56,4.43,2.9,5s4.14-.36,4.79-3.2l3.27-14.19,2.13.49-3.37,14.63c-.82,3.54-3.36,5-7.23,4.07s-5.54-3.28-4.72-6.83l3.37-14.62Z"/>
  </g>
  <g>
    <path class="cls-18" d="M1497.57,283.42V263.14h6.3c4.48,0,6.35,2.69,6.35,6.14s-1.87,6-6.35,6h-4.12v8.12Zm2.18-10h4.06c2.35,0,4.06-1.29,4.06-4.17s-1.37-4.29-4.31-4.29h-3.81Z"/>
    <path class="cls-18" d="M1527.33,273.28c0,6-2.35,10.47-7.67,10.47s-7.67-4.45-7.67-10.47,2.35-10.47,7.67-10.47S1527.33,267.26,1527.33,273.28Zm-13,0c0,5.71,1.73,8.62,5.32,8.62s5.32-2.91,5.32-8.62-1.74-8.62-5.32-8.62S1514.34,267.57,1514.34,273.28Z"/>
    <path class="cls-18" d="M1528.37,263.14h2.07l4.87,17.64h.06l3.13-17.64h2.72l3.41,17.64h.06l4.59-17.64h2.13l-5.63,20.28h-2.57L1540,266.11h-.06l-3.08,17.31h-2.77Z"/>
    <path class="cls-18" d="M1553.57,283.42V263.14h10.19V265h-8v6.83h8v1.85h-8v7.9h8v1.85Z"/>
    <path class="cls-18" d="M1567.57,263.14h6.13c4.48,0,6.35,2.69,6.35,6.11,0,3.19-1.59,5.88-5.18,5.93l5.69,8.24h-2.66l-6.44-10v-.11h2.27c2.6,0,4-1.52,4-4.06,0-2.89-1.37-4.29-4.31-4.29h-3.64v18.43h-2.18Z"/>
  </g>
</svg>
